<svg xmlns="http://www.w3.org/2000/svg" version="1.1" viewBox="0 0 414.22 56.17"><defs><style>.cls-1{fill:#333;}</style></defs><title>Asset 1</title><g id="Layer_2" data-name="Layer 2"><g id="Layer_1-2" data-name="Layer 1"><path class="cls-1" d="M19,43.45a20.37,20.37,0,0,1-6,.76c-6.6,0-8.59-3.71-8.59-8.59v-16c0-.48-.21-.76-.83-.76H1c-.62,0-1-.27-1-.83V14.37a.78.78,0,0,1,.83-.89H3.51a.83.83,0,0,0,.89-.89V7.08a1,1,0,0,1,.83-1L9.69,5c.82-.21,1.1.27,1.1.76v6.88c0,.48.21.83.89.83h5.84c.55,0,.89.27.89.82V18c0,.55-.27.83-.89.83H11.62c-.55,0-.82.21-.82.76V34.38c0,2.41.76,3.85,3.23,3.85a35.67,35.67,0,0,0,3.58-.41c1.31-.27,1.58.14,1.72.89l.62,3.3C20.08,43,19.66,43.18,19,43.45Z"/><path class="cls-1" d="M46.77,43.8H42c-.62,0-.89-.27-.89-.83V24.75c0-3.51-1.93-6.05-5.91-6.05a5.74,5.74,0,0,0-5.91,6.05c0,4.81,0,1.44-.07,18.15,0,.62-.28.89-.83.89H23.53c-.62,0-.89-.27-.89-.83.07-16.85.07-10.59,0-42.08,0-.62.27-.89.82-.89h4.81c.55,0,.83.28.83.89V14.65c0,.62.55.82,1.1.41a11.17,11.17,0,0,1,6.39-2c7.22,0,11,4.74,11,11.62l.07,18.22A.8.8,0,0,1,46.77,43.8Z"/><path class="cls-1" d="M74.91,30H59.37a1.25,1.25,0,0,0-1.31,1.24v1.17a5.93,5.93,0,0,0,6,6.12,7.63,7.63,0,0,0,6.12-3.37c.41-.55.83-.76,1.51-.28l3,1.93c.69.48,1,.83.69,1.44-2.27,4.19-6.6,6-11.21,6-7.56,0-12.58-4.54-12.58-11.48V25c0-7.08,5.16-12,12.44-12s12.44,4.74,12.44,12v3.3A1.7,1.7,0,0,1,74.91,30ZM64.12,18.56c-3.78,0-5.43,2.61-5.71,6-.07.48.07.76.89.76h9.9c.62,0,.76-.27.76-1C69.75,20.83,67.69,18.56,64.12,18.56Z"/><path class="cls-1" d="M105.37,44.14c-4.81,0-9.42-1.86-11.55-6.46a1.61,1.61,0,0,1-.14-.55.74.74,0,0,1,.41-.62l3.58-1.79c.69-.34.89-.14,1.31.41a8,8,0,0,0,6.74,3.71c2.54,0,4.54-1.24,4.54-3.37,0-1.93-1.37-2.75-3.71-3.64l-4.4-1.51c-4.13-1.44-7.56-3.71-7.56-8.39,0-5.84,5.09-8.8,10.73-8.87a14.61,14.61,0,0,1,10.38,3.85.82.82,0,0,1,0,1.24l-2.27,3a1,1,0,0,1-.62.34,1.32,1.32,0,0,1-.83-.34,12.32,12.32,0,0,0-6.53-2.54c-2.13,0-4.54.89-4.54,3,0,1.58,1.31,2.68,3.71,3.51,5.36,1.86,12,3.44,12,10.18C116.64,40.57,112.11,44.14,105.37,44.14Z"/><path class="cls-1" d="M137.54,43.45a20.37,20.37,0,0,1-6,.76c-6.6,0-8.59-3.71-8.59-8.59v-16c0-.48-.21-.76-.83-.76h-2.61c-.62,0-1-.27-1-.83V14.37a.78.78,0,0,1,.82-.89h2.68a.83.83,0,0,0,.89-.89V7.08a1,1,0,0,1,.82-1l4.47-1c.83-.21,1.1.27,1.1.76v6.88c0,.48.21.83.89.83h5.84c.55,0,.89.27.89.82V18c0,.55-.27.83-.89.83h-5.91c-.55,0-.83.21-.83.76V34.38c0,2.41.76,3.85,3.23,3.85a35.69,35.69,0,0,0,3.58-.41c1.31-.27,1.58.14,1.72.89l.62,3.3C138.64,43,138.22,43.18,137.54,43.45Z"/><path class="cls-1" d="M164.36,43.8h-4.74c-.55,0-.76-.21-.76-.83v-.89c0-.69-.41-.55-.89-.14a10.75,10.75,0,0,1-6.87,2.27c-7,0-10.86-4.68-10.86-11.55V14.37c0-.62.28-.89.83-.89h4.81c.62,0,.89.27.89.82V32.52c0,3.51,1.86,6.05,5.91,6.05a5.66,5.66,0,0,0,6-6V14.37c0-.62.28-.89.89-.89h4.74c.55,0,.89.27.89.82V42.9C165.19,43.52,164.91,43.8,164.36,43.8Z"/><path class="cls-1" d="M193.37,43.8H189c-.69,0-.76-.41-.82-.83v-.62c-.07-.83-.34-.83-.76-.41-1.72,1.65-4.06,2.27-6.94,2.27-7.63,0-11.14-5.09-11.14-11.62V24.68c0-6.26,4.19-11.62,11.28-11.62a9.43,9.43,0,0,1,6,1.79c.69.55,1.17.62,1.17-.34V.83c0-.55.28-.83.89-.83h4.74a.8.8,0,0,1,.89.89V43C194.26,43.52,194,43.8,193.37,43.8ZM187.8,24.68c0-3.3-2-6.05-6.05-6.05a5.83,5.83,0,0,0-6,6.05v7.91c0,3.44,2.06,6,6.05,6a5.88,5.88,0,0,0,5.91-6Z"/><path class="cls-1" d="M221.55,30H206a1.25,1.25,0,0,0-1.31,1.24v1.17a5.93,5.93,0,0,0,6,6.12,7.63,7.63,0,0,0,6.12-3.37c.41-.55.83-.76,1.51-.28l3,1.93c.69.48,1,.83.69,1.44-2.27,4.19-6.6,6-11.21,6-7.56,0-12.58-4.54-12.58-11.48V25c0-7.08,5.16-12,12.44-12s12.45,4.74,12.45,12v3.3A1.7,1.7,0,0,1,221.55,30ZM210.76,18.56c-3.78,0-5.43,2.61-5.71,6-.07.48.07.76.89.76h9.9c.62,0,.76-.27.76-1C216.4,20.83,214.34,18.56,210.76,18.56Z"/><path class="cls-1" d="M250.94,43.8h-4.81c-.62,0-.89-.27-.89-.83V24.75c0-3.51-1.86-6.05-6-6.05a5.65,5.65,0,0,0-5.91,6V42.9a.8.8,0,0,1-.89.89H227.7c-.55,0-1-.27-1-.83V14.37a.8.8,0,0,1,.89-.89h4.74c.55,0,.76.21.76.82v1.38c0,.69.48.62.89.14,1.65-1.72,5-2.75,7.49-2.75,7.08,0,10.25,4.68,10.25,11.55V42.9A.78.78,0,0,1,250.94,43.8Z"/><path class="cls-1" d="M273.19,43.45a20.37,20.37,0,0,1-6,.76c-6.6,0-8.59-3.71-8.59-8.59v-16c0-.48-.21-.76-.83-.76h-2.61c-.62,0-1-.27-1-.83V14.37a.78.78,0,0,1,.82-.89h2.68a.83.83,0,0,0,.89-.89V7.08a1,1,0,0,1,.82-1l4.47-1c.83-.21,1.1.27,1.1.76v6.88c0,.48.21.83.89.83h5.84c.55,0,.89.27.89.82V18c0,.55-.27.83-.89.83h-5.91c-.55,0-.83.21-.83.76V34.38c0,2.41.76,3.85,3.23,3.85a35.69,35.69,0,0,0,3.58-.41c1.31-.27,1.58.14,1.72.89l.62,3.3C274.29,43,273.87,43.18,273.19,43.45Z"/><path class="cls-1" d="M304.54,44.28a9.67,9.67,0,0,1-6.05-1.79c-.76-.55-1.24-.62-1.24.34V55.35a.73.73,0,0,1-.83.83h-4.74c-.62,0-.89-.28-.89-.89V14.37c0-.55.28-.83.89-.83h4.61c.69,0,.69.41.69.83V15c0,.69.41.82.89.41a10.33,10.33,0,0,1,7-2.27c7.49,0,10.86,5.09,10.86,11.62v7.91C315.74,38.92,311.75,44.28,304.54,44.28Zm4.67-19.53a5.59,5.59,0,0,0-6-6,5.9,5.9,0,0,0-6,6v7.91a5.93,5.93,0,0,0,6,6.05,5.82,5.82,0,0,0,5.91-6.05Z"/><path class="cls-1" d="M336.19,19c-.14.89-.55.89-1.1.82a13,13,0,0,0-2.13-.27c-4.88,0-6.46,3.23-6.46,7.56V42.9a.8.8,0,0,1-.89.89h-4.74c-.62,0-1-.27-1-.83V14.37a.8.8,0,0,1,.89-.89h4.13c.55,0,.89.27.89.82V17c0,.48.41.69.76.21A9.89,9.89,0,0,1,334.33,13a7,7,0,0,1,2.13.27c.83.21.89.62.76,1.24Z"/><path class="cls-1" d="M361.49,30H346a1.25,1.25,0,0,0-1.31,1.24v1.17a5.93,5.93,0,0,0,6,6.12,7.63,7.63,0,0,0,6.12-3.37c.41-.55.83-.76,1.51-.28l3,1.93c.69.48,1,.83.69,1.44-2.27,4.19-6.6,6-11.21,6-7.56,0-12.58-4.54-12.58-11.48V25c0-7.08,5.16-12,12.44-12s12.45,4.74,12.45,12v3.3A1.7,1.7,0,0,1,361.49,30ZM350.7,18.56c-3.78,0-5.43,2.61-5.71,6-.07.48.07.76.89.76h9.9c.62,0,.76-.27.76-1C356.34,20.83,354.28,18.56,350.7,18.56Z"/><path class="cls-1" d="M377.19,44.14c-4.81,0-9.42-1.86-11.55-6.46a1.61,1.61,0,0,1-.14-.55.74.74,0,0,1,.41-.62l3.58-1.79c.69-.34.89-.14,1.31.41a8,8,0,0,0,6.74,3.71c2.54,0,4.54-1.24,4.54-3.37,0-1.93-1.37-2.75-3.71-3.64L374,30.32c-4.12-1.44-7.56-3.71-7.56-8.39,0-5.84,5.09-8.8,10.73-8.87a14.61,14.61,0,0,1,10.38,3.85.82.82,0,0,1,0,1.24l-2.27,3a1,1,0,0,1-.62.34,1.32,1.32,0,0,1-.83-.34,12.32,12.32,0,0,0-6.53-2.54c-2.13,0-4.54.89-4.54,3,0,1.58,1.31,2.68,3.71,3.51,5.36,1.86,12,3.44,12,10.18C388.47,40.57,383.93,44.14,377.19,44.14Z"/><path class="cls-1" d="M402.94,44.14c-4.81,0-9.42-1.86-11.55-6.46a1.61,1.61,0,0,1-.14-.55.74.74,0,0,1,.41-.62l3.58-1.79c.69-.34.89-.14,1.31.41a8,8,0,0,0,6.74,3.71c2.54,0,4.54-1.24,4.54-3.37,0-1.93-1.37-2.75-3.71-3.64l-4.4-1.51c-4.12-1.44-7.56-3.71-7.56-8.39,0-5.84,5.09-8.8,10.73-8.87a14.61,14.61,0,0,1,10.38,3.85.82.82,0,0,1,0,1.24l-2.27,3a1,1,0,0,1-.62.34,1.32,1.32,0,0,1-.83-.34A12.32,12.32,0,0,0,403,18.56c-2.13,0-4.54.89-4.54,3,0,1.58,1.31,2.68,3.71,3.51,5.36,1.86,12,3.44,12,10.18C414.22,40.57,409.68,44.14,402.94,44.14Z"/></g></g></svg>